# xmcd CD database file
#
# Track frame offsets:
#	150
#	11370
#	25986
#	50510
#	92286
#	110967
#	170835
#	265656
#	289220
#	297703
#
# Disc length: 4072 seconds
#
# Revision: 0
# Processed by: cddbd v1.5.1PL0 Copyright (c) Steve Scherf et al.
# Submitted via: CDex 1.51
#
DISCID=920fe60a
DTITLE=Lenny Breau - At The Purple Onion
DYEAR=1962
DGENRE=Jazz
TTITLE0=Introduction
TTITLE1=A New Electric Chair
TTITLE2=The Surrey With The Fringe On Top
TTITLE3=The Newspaper Song
TTITLE4=Gum Addiction
TTITLE5=Tea For Two
TTITLE6=A Gentile Sings the Blues
TTITLE7=Work Song
TTITLE8=Oscar's Blues
TTITLE9=Joey's Solo
EXTD=YEAR: 1962
EXTT0=
EXTT1=
EXTT2=
EXTT3=
EXTT4=
EXTT5=
EXTT6=
EXTT7=
EXTT8=
EXTT9=
PLAYORDER=
